Coordinates
version=1
nRows=17
nColumns=33
inDegrees=yes

Units are S.I. units (second, meters, Newtons, ...)
Angles are in degrees.

endheader
time	ground_thorax_rot_x	ground_thorax_rot_y	ground_thorax_rot_z	ground_thorax_tx	ground_thorax_ty	ground_thorax_tz	clav_prot_r	clav_elev_r	scapula_abduction_r	scapula_elevation_r	scapula_upward_rot_r	scapula_winging_r	shoulder_elv_r	plane_of_elev_r	axial_rot_r	elbow_flexion_r	pro_sup_r	wrist_flex_r	wrist_dev_r	clav_prot_l	clav_elev_l	scapula_abduction_l	scapula_elevation_l	scapula_upward_rot_l	scapula_winging_l	shoulder_elv_l	plane_of_elev_l	axial_rot_l	elbow_flexion_l	pro_sup_l	wrist_flex_l	wrist_dev_l
      6.54000000	     37.06146328	     18.46614800	     21.91673779	   -151.07590484	    817.22356316	     11.32736549	     16.23209261	     38.47758237	     40.57533344	     45.00000000	    -45.00000000	   2793.51053076	  -4069.20957957	    147.31981101	   -116.49568332	   1103.87061855	    191.81402042	      9.35473989	      3.51494437	     11.54531984	    -45.00000000	    -39.87078805	     45.00000000	    -43.30311678	  -1703.73451780	    625.89235643	    137.06085232	   -179.99999979	   1089.39070491	     24.32792774	     10.57269876	    -22.08534516
      6.55000000	     36.80483995	     19.23564869	     22.80409598	   -145.72994037	    814.87918995	     11.68331281	     16.14671911	     38.42518398	     40.42849759	     45.00000000	    -45.00000000	   2793.73417624	  -4069.53125539	    147.34715236	   -115.59588497	   1103.68220453	    193.32803575	      9.20279072	      3.35537715	     11.61358760	    -45.00000000	    -39.83097977	     45.00000000	    -43.48140858	  -1704.01014125	    625.52730379	    137.05338326	   -179.99999979	   1089.20177848	     24.46680238	     10.90587191	    -21.93289588
      6.56000000	     36.56165374	     19.95460176	     23.69233255	   -140.30878002	    812.44052018	     12.05328799	     16.20579663	     38.44540800	     40.35992235	     45.00000000	    -45.00000000	   2794.02069208	  -4069.82005326	    147.48319630	   -114.57882796	   1103.49109582	    194.78609851	      9.05541653	      3.19799768	     11.52680825	    -45.00000000	    -39.77375170	     45.00000000	    -43.59010823	  -1704.24714871	    625.16114398	    137.03472876	   -179.99999979	   1089.01638903	     24.72875316	     11.17537166	    -21.76690645
      6.57000000	     36.28594310	     20.69608189	     24.62940319	   -134.82233034	    809.92178480	     12.43186002	     16.18358495	     38.47323582	     40.24131696	     45.00000000	    -45.00000000	   2794.32040080	  -4070.13464747	    147.62897859	   -113.48792012	   1103.24676922	    196.08220815	      8.92766721	      3.00544900	     11.51794509	    -45.00000000	    -39.68319201	     45.00000000	    -43.86413245	  -1704.55789793	    624.80302943	    137.03862301	   -179.99999979	   1088.81825518	     25.13259012	     11.42633265	    -21.61024696
      6.58000000	     35.95841587	     21.48495361	     25.65787237	   -129.29106711	    807.34072110	     12.80983376	     16.09400672	     38.49961091	     40.02737403	     45.00000000	    -45.00000000	   2794.59761466	  -4070.43546905	    147.74526312	   -112.29279261	   1103.07254014	    197.21579597	      8.80367018	      2.80692482	     11.59280257	    -45.00000000	    -39.56153819	     45.00000000	    -44.21664485	  -1704.90876481	    624.45635683	    137.08528127	   -179.99999979	   1088.61843149	     25.69251136	     11.62107386	    -21.46097423
      6.59000000	     35.62744803	     22.25312202	     26.68188006	   -123.73746703	    804.71395911	     13.17502326	     15.89452818	     38.47262193	     39.78771516	     45.00000000	    -45.00000000	   2794.87565323	  -4070.68768467	    147.88222377	   -111.12070186	   1102.93748590	    198.20264688	      8.68540352	      2.59863124	     11.73052436	    -45.00000000	    -39.50188136	     45.00000000	    -44.51779064	  -1705.23920778	    623.98230085	    137.12023370	   -179.99999979	   1088.32834879	     26.39951162	     11.87944334	    -21.32549160
      6.60000000	     35.19075323	     23.08005916	     27.85180892	   -118.18414655	    802.05767780	     13.51507562	     15.70894962	     38.37566557	     39.53333176	     45.00000000	    -45.00000000	   2795.04391751	  -4071.15645302	    147.95045934	   -109.32077756	   1102.68307934	    199.09096876	      8.63849764	      2.55777728	     11.86517604	    -45.00000000	    -39.41226102	     45.00000000	    -44.99608616	  -1705.43154310	    623.59462006	    137.00130601	   -179.99999979	   1087.99667926	     27.29935687	     12.13502439	    -21.20146140
      6.61000000	     34.85900862	     23.60189367	     28.76966649	   -112.65814949	    799.38976082	     13.81863419	     15.91296415	     38.46581195	     39.43942843	     45.00000000	    -45.00000000	   2795.46707296	  -4071.49898485	    148.22767878	   -108.12086993	   1102.43506867	    200.12138276	      8.52651855	      2.37418386	     11.68397695	    -45.00000000	    -39.24903128	     45.00000000	    -45.00000000	  -1705.83206418	    623.11406063	    137.16274031	   -179.99999979	   1087.66731997	     28.35234886	     12.23657466	    -21.09766938
      6.62000000	     34.46283898	     24.18007186	     29.77908439	   -107.18639009	    796.72974117	     14.07653385	     16.06344964	     38.56919693	     39.21230463	     45.00000000	    -45.00000000	   2795.89134264	  -4071.79228958	    148.45197451	   -106.61604497	   1102.20828426	    201.23210909	      8.40891534	      2.22877676	     11.53092931	    -45.00000000	    -39.12217675	     45.00000000	    -45.00000000	  -1706.18139941	    622.64553115	    137.36799720	   -179.99999979	   1087.35140596	     29.47136084	     12.27778201	    -20.99558535
      6.63000000	     34.03208936	     24.73665875	     30.77553869	   -101.79649300	    794.09744434	     14.28091581	     16.05688157	     38.58540299	     38.92680894	     45.00000000	    -45.00000000	   2796.30084740	  -4072.12468044	    148.66032858	   -105.19747968	   1101.96066914	    202.35159218	      8.28610569	      2.04761528	     11.48004277	    -45.00000000	    -38.99401667	     45.00000000	    -45.00000000	  -1706.47037736	    622.16433544	    137.47469107	   -179.99999979	   1086.92858333	     30.65545326	     12.35804136	    -20.88963708
      6.64000000	     33.39184225	     25.38385287	     31.93856497	    -96.52062599	    791.51631665	     14.42571242	     15.11174076	     38.18734409	     38.56345972	     45.00000000	    -45.00000000	   2796.52146486	  -4072.67043721	    148.77686825	   -103.61270567	   1101.75594312	    203.19194817	      8.21255372	      1.86276962	     12.17808258	    -45.00000000	    -39.29226669	     45.00000000	    -45.00000000	  -1706.19250192	    621.60263277	    137.01661498	   -179.31128879	   1086.19089076	     31.82801602	     12.80915916	    -20.76075581
      6.65000000	     33.21917258	     25.70451030	     32.67099059	    -91.39163566	    789.01144061	     14.50767028	     16.03992646	     38.71288806	     38.35660331	     45.00000000	    -45.00000000	   2796.99653592	  -4072.83630405	    148.98001178	   -102.22109463	   1101.35872888	    204.44912217	      8.07869214	      1.75160439	     11.38847171	    -45.00000000	    -38.62948978	     45.00000000	    -45.00000000	  -1707.10028148	    621.18523936	    137.69016516	   -179.99999979	   1085.90811462	     33.03664166	     12.56944032	    -20.70511902
      6.66000000	     32.76560052	     26.16362602	     33.73093029	    -86.44651262	    786.61503050	     14.52598823	     16.17437703	     38.71250861	     38.17776997	     45.00000000	    -45.00000000	   2797.39653811	  -4073.15516524	    149.37177575	   -100.52501531	   1101.08775477	    205.98519012	      7.91762849	      1.71565751	     11.16919578	    -45.00000000	    -38.47649936	     45.00000000	    -45.00000000	  -1707.34930500	    620.66008831	    137.91652593	   -179.99999979	   1085.40527723	     34.16770894	     12.56453599	    -20.58302582
      6.67000000	     32.27230150	     26.59149935	     34.69833088	    -81.72058925	    784.36223554	     14.48267020	     15.81824126	     38.64091940	     37.77098892	     45.00000000	    -45.00000000	   2797.70313110	  -4073.48497516	    149.48850453	    -98.88685236	   1100.76437616	    207.39630982	      7.77643432	      1.62502574	     11.46611937	    -45.00000000	    -38.46092244	     45.00000000	    -45.00000000	  -1707.47036186	    620.10912737	    137.89062426	   -179.23934716	   1084.76719108	     35.16365981	     12.76495586	    -20.47252862
      6.68000000	     31.83585047	     26.94966520	     35.62383082	    -77.24926431	    782.29439011	     14.38246338	     15.94006576	     38.67130029	     37.54813054	     45.00000000	    -45.00000000	   2798.11121314	  -4073.78922570	    149.84515604	    -97.29033513	   1100.38510814	    209.12575162	      7.60199815	      1.61059319	     11.20471654	    -45.00000000	    -38.25878835	     45.00000000	    -45.00000000	  -1707.72603059	    619.68250537	    138.00018957	   -178.82809482	   1084.08991944	     36.15691381	     12.77551154	    -20.31421682
      6.69000000	     31.28990500	     27.33837364	     36.68463769	    -73.07165954	    780.45844169	     14.23311328	     15.60385417	     38.51255446	     37.18292801	     45.00000000	    -45.00000000	   2798.44418892	  -4074.12429815	    150.06913280	    -95.87178101	   1099.96006767	    210.72410182	      7.46117124	      1.57376134	     11.43247788	    -45.00000000	    -38.14557982	     45.00000000	    -45.00000000	  -1707.66507255	    619.20357815	    137.91827093	   -178.28532584	   1083.32949722	     36.95129390	     12.84912927	    -20.10396899
      6.70000000	     30.76761545	     27.69330707	     37.66957637	    -69.22582029	    778.90188782	     14.04739963	     15.62350330	     38.43149702	     36.80586941	     45.00000000	    -45.00000000	   2798.85652837	  -4074.36584504	    150.39917128	    -94.39954880	   1099.56313488	    212.41394966	      7.31260030	      1.59917735	     11.31192553	    -45.00000000	    -38.00992464	     45.00000000	    -45.00000000	  -1707.76199307	    618.84420061	    137.98380522	   -177.88716076	   1082.62874498	     37.62843642	     12.81331674	    -19.86519453
